<svg xmlns="http://www.w3.org/2000/svg" width="24" height="24" fill="none" viewBox="0 0 24 24"><path stroke="#000" stroke-linecap="round" stroke-linejoin="round" stroke-width="2" d="M11 8V2H2V8C2 10.2091 3.79086 12 6 12H7C9.20914 12 11 10.2091 11 8Z"/><path stroke="#000" stroke-linecap="round" stroke-linejoin="round" stroke-width="2" d="M15 16V2H18C20.2091 2 22 3.79086 22 6V16H18"/><path stroke="#000" stroke-linecap="round" stroke-linejoin="round" stroke-width="2" d="M15 16V21C15 21.5523 15.4477 22 16 22H17C17.5523 22 18 21.5523 18 21V16"/><path stroke="#000" stroke-linecap="round" stroke-linejoin="round" stroke-width="2" d="M5 15V21C5 21.5523 5.44772 22 6 22H7C7.55228 22 8 21.5523 8 21V15"/><path stroke="#000" stroke-linecap="round" stroke-linejoin="round" stroke-width="2" d="M5 7L5 2"/><path stroke="#000" stroke-linecap="round" stroke-linejoin="round" stroke-width="2" d="M8 7L8 2"/></svg>